# xmcd
#
# Track frame offsets:
#	150
#	16025
#	27855
#	44860
#	63015
#	72733
#	85243
#	100183
#	113978
#	131158
#	144105
#	158803
#	172633
#	184340
#	197025
#	208975
#	222345
#	239838
#	257898
#	274583
#
# Disc length: 3898 seconds
#
# Revision: 1
# Processed by: cddbd v1.5.1PL0 Copyright (c) Steve Scherf et al.
# Submitted via: CDex 1.50Beta5
#
DISCID=2c0f3814
DTITLE=Various Artist - 私の青春譜 3
DYEAR=2003
DGENRE=Pop
TTITLE0=岡林信康＆高石友也＆フォーク・キャンパーズ/友よ
TTITLE1=高石友也/想い出の赤いヤッケ
TTITLE2=高石友也/受験生ブルース
TTITLE3=五つの赤い風船/遠い世界に
TTITLE4=五つの赤い風船/もしもボクの背中に羽根が生えていたら
TTITLE5=赤い鳥/竹田の子守歌
TTITLE6=チェリッシュ/なのにあなたは京都へゆくの
TTITLE7=チェリッシュ/ひまわりの小径
TTITLE8=佐良直美/世界は二人のために
TTITLE9=荒木一郎/空に星があるように
TTITLE10=アン真理子/悲しみは駆け足でやってくる
TTITLE11=中山千夏/あなたの心に
TTITLE12=ソルティ・シュガー/走れコウタロー
TTITLE13=チェリッシュ/若草の髪かざり
TTITLE14=チェリッシュ/てんとう虫のサンバ
TTITLE15=チェリッシュ/白いギター
TTITLE16=マイ・ペース/東京
TTITLE17=高橋真梨子/あなたの空を翔びたい
TTITLE18=日暮し/い・に・し・え
TTITLE19=松崎しげる/愛のメモリー
EXTD=
EXTT0=
EXTT1=
EXTT2=
EXTT3=
EXTT4=
EXTT5=
EXTT6=
EXTT7=
EXTT8=
EXTT9=
EXTT10=
EXTT11=
EXTT12=
EXTT13=
EXTT14=
EXTT15=
EXTT16=
EXTT17=
EXTT18=
EXTT19=
PLAYORDER=
